<?xml version="1.0" standalone="no"?>
<!DOCTYPE svg PUBLIC "-//W3C//DTD SVG 20010904//EN"
 "http://www.w3.org/TR/2001/REC-SVG-20010904/DTD/svg10.dtd">
<svg version="1.0" xmlns="http://www.w3.org/2000/svg"
 width="1563.000000pt" height="313.000000pt" viewBox="0 0 1563.000000 313.000000"
 preserveAspectRatio="xMidYMid meet">

<g transform="translate(0.000000,313.000000) scale(0.100000,-0.100000)"
fill="#000000" stroke="none">
<path d="M12780 2450 c-17 -17 -20 -33 -20 -124 0 -151 0 -151 169 -151 122 0
132 1 153 23 21 21 23 32 23 126 0 147 1 146 -172 146 -120 0 -135 -2 -153
-20z"/>
<path d="M5655 2428 c-11 -6 -23 -16 -27 -22 -4 -6 -8 -347 -8 -758 l0 -747
22 -21 c19 -18 35 -20 141 -20 121 0 148 6 163 37 5 10 11 178 14 374 l5 356
30 48 c53 86 169 122 277 86 39 -13 91 -65 111 -110 8 -17 13 -146 17 -389 l5
-364 24 -19 c20 -16 40 -19 145 -19 182 0 166 -40 166 413 0 300 -3 384 -15
431 -45 172 -157 288 -320 331 -152 39 -342 -4 -419 -96 l-26 -31 0 225 c0
231 -6 279 -40 297 -26 14 -240 12 -265 -2z"/>
<path d="M7049 2421 l-24 -19 0 -752 0 -752 24 -19 c20 -16 40 -19 136 -19
111 0 114 1 134 26 12 16 21 42 21 63 l1 36 15 -25 c22 -36 81 -75 144 -97 83
-27 275 -25 350 5 209 83 313 305 297 637 -9 192 -47 301 -142 403 -63 68
-127 106 -216 127 -148 35 -315 4 -398 -74 l-29 -27 -7 234 c-9 290 2 272
-166 272 -100 0 -120 -3 -140 -19z m642 -667 c38 -19 86 -78 100 -121 18 -58
23 -265 9 -335 -27 -127 -91 -181 -215 -182 -85 -1 -138 25 -179 87 -41 64
-50 111 -51 252 0 153 13 200 74 259 64 62 184 81 262 40z"/>
<path d="M13526 2419 l-26 -20 0 -185 0 -184 -80 0 c-93 0 -125 -12 -140 -53
-14 -43 -12 -132 4 -172 17 -39 30 -44 136 -47 l75 -3 6 -300 c6 -332 12 -368
72 -446 85 -111 160 -140 380 -147 154 -4 159 -4 183 19 22 21 24 30 24 120 0
93 -1 98 -26 118 -23 18 -41 21 -126 21 -110 0 -146 12 -170 59 -9 19 -14 96
-16 294 l-3 267 140 0 c181 0 181 0 181 134 0 90 -1 96 -26 115 -24 19 -40 21
-160 21 l-134 0 0 184 0 185 -26 20 c-23 18 -41 21 -134 21 -93 0 -111 -3
-134 -21z"/>
<path d="M652 2035 c-137 -31 -248 -109 -300 -210 -58 -114 -34 -265 55 -352
62 -60 150 -99 327 -143 218 -54 250 -74 248 -153 -2 -64 -80 -102 -195 -95
-64 4 -81 10 -129 41 -30 20 -63 46 -73 57 -16 18 -31 20 -137 20 -105 0 -120
-2 -138 -20 -60 -60 35 -202 183 -275 91 -45 186 -65 307 -64 326 0 522 137
522 364 0 148 -82 251 -250 315 -27 10 -102 31 -168 45 -138 31 -215 58 -236
83 -40 46 -23 118 35 145 48 23 141 22 192 -2 22 -11 62 -37 89 -60 l48 -41
104 0 c91 0 107 3 124 20 57 57 -13 176 -152 263 -15 9 -62 29 -105 43 -97 33
-254 41 -351 19z"/>
<path d="M3510 2044 c-98 -19 -182 -62 -224 -116 l-26 -33 0 46 c0 75 -18 84
-160 84 -102 0 -121 -3 -139 -19 -21 -19 -21 -23 -21 -561 l0 -542 23 -21 c21
-20 34 -22 141 -22 64 0 126 4 136 10 36 19 40 63 40 400 0 218 4 338 11 361
36 107 139 162 262 138 62 -11 110 -47 140 -102 21 -41 22 -53 27 -405 l5
-364 24 -19 c20 -16 40 -19 141 -19 101 0 121 3 141 19 l24 19 3 339 c3 339
-3 423 -34 519 -36 112 -141 223 -251 264 -57 22 -205 35 -263 24z"/>
<path d="M4695 2034 c-210 -47 -346 -182 -390 -390 -19 -90 -19 -308 0 -399
40 -189 149 -312 335 -377 78 -28 261 -35 357 -15 188 40 332 163 378 322 22
73 14 102 -30 121 -43 18 -220 19 -254 1 -13 -6 -37 -37 -53 -67 -55 -103 -93
-125 -208 -118 -86 5 -137 36 -171 105 -23 45 -24 58 -24 228 1 197 7 224 62
279 39 40 83 56 150 56 100 -1 157 -39 196 -132 26 -62 49 -70 187 -66 116 3
123 4 142 28 26 32 19 82 -23 168 -55 113 -170 205 -309 247 -80 24 -258 29
-345 9z"/>
<path d="M8755 2033 c-162 -34 -280 -123 -344 -256 -52 -108 -61 -160 -61
-335 0 -204 26 -301 108 -410 48 -64 86 -95 158 -130 99 -48 146 -57 304 -56
131 0 152 3 219 27 134 47 215 117 271 232 50 102 64 173 64 340 0 164 -13
236 -61 335 -37 76 -132 169 -213 208 -125 59 -298 77 -445 45z m283 -277 c75
-52 109 -177 99 -361 -10 -165 -41 -236 -122 -275 -51 -25 -140 -29 -190 -10
-40 15 -82 56 -107 104 -47 91 -46 372 2 466 21 42 75 90 112 102 13 4 55 6
94 5 60 -2 78 -7 112 -31z"/>
<path d="M11865 2033 c-130 -27 -248 -111 -297 -211 -19 -39 -23 -63 -23 -137
0 -81 3 -95 30 -144 57 -102 147 -153 379 -211 158 -39 229 -68 240 -95 9 -26
7 -74 -5 -97 -17 -31 -86 -58 -154 -58 -86 0 -123 13 -193 70 l-62 50 -115 0
c-102 0 -117 -2 -135 -20 -28 -28 -25 -66 10 -127 75 -131 260 -213 480 -212
241 0 409 73 485 210 28 50 30 62 30 154 0 91 -3 104 -27 146 -63 107 -157
160 -380 213 -209 50 -251 70 -263 126 -15 67 48 120 142 120 74 0 116 -16
183 -70 l63 -50 101 0 c89 0 105 3 124 20 64 60 -31 204 -181 276 -131 62
-284 79 -432 47z"/>
<path d="M14723 2035 c-265 -58 -413 -271 -413 -595 0 -203 51 -351 157 -451
77 -74 133 -105 234 -130 70 -18 102 -21 199 -16 177 9 295 54 397 154 53 51
92 119 93 159 0 11 -9 29 -21 40 -18 17 -37 19 -150 19 l-128 0 -53 -52 c-86
-84 -173 -104 -264 -58 -70 35 -122 121 -124 203 l0 32 363 0 364 0 23 25 c22
23 23 29 17 127 -11 181 -61 312 -158 409 -124 124 -336 177 -536 134z m233
-244 c66 -30 124 -125 124 -202 l0 -29 -215 0 -215 0 0 26 c0 163 161 271 306
205z"/>
<path d="M1585 2020 c-47 -18 -46 -16 -43 -427 3 -376 4 -390 26 -452 48 -132
134 -227 249 -272 77 -31 259 -34 342 -6 68 23 125 61 151 101 l20 31 0 -46
c0 -35 6 -51 23 -67 21 -20 34 -22 138 -22 108 0 117 2 137 23 l22 23 0 541
c0 642 17 576 -152 581 -127 4 -162 -5 -177 -50 -7 -20 -11 -152 -11 -356 0
-217 -4 -337 -12 -363 -44 -148 -253 -200 -358 -90 -57 60 -60 82 -60 448 0
205 -4 341 -10 360 -6 17 -22 35 -36 42 -28 13 -218 14 -249 1z"/>
<path d="M9655 2018 c-28 -16 -35 -28 -35 -62 0 -22 41 -84 175 -263 l175
-233 -190 -253 c-201 -267 -211 -287 -168 -327 19 -18 35 -20 139 -20 65 0
124 3 133 6 8 3 75 86 148 185 72 98 134 179 138 179 3 0 63 -79 133 -175 71
-96 137 -179 147 -185 10 -5 73 -10 139 -10 108 0 123 2 141 20 34 34 25 72
-32 147 -28 37 -102 133 -163 213 -61 80 -123 161 -138 181 l-27 36 175 234
c97 128 178 243 181 255 8 29 -11 63 -42 74 -28 11 -213 14 -238 4 -9 -4 -73
-85 -143 -180 -69 -96 -127 -173 -128 -172 -130 185 -252 341 -272 349 -34 13
-224 11 -248 -3z"/>
<path d="M12796 2009 l-26 -20 0 -543 0 -543 23 -21 c21 -20 34 -22 136 -22
62 0 121 4 131 10 10 5 23 24 29 41 15 43 15 1023 1 1066 -15 43 -47 53 -164
53 -89 0 -107 -3 -130 -21z"/>
<path d="M10967 1208 c-9 -7 -21 -26 -27 -41 -13 -37 -13 -218 0 -253 19 -49
35 -53 178 -54 128 0 134 1 157 25 24 23 25 29 25 153 0 116 -2 132 -21 156
-20 26 -21 26 -158 26 -94 0 -142 -4 -154 -12z"/>
</g>
</svg>
