<?xml version="1.0" standalone="no"?>
<!DOCTYPE svg PUBLIC "-//W3C//DTD SVG 20010904//EN"
 "http://www.w3.org/TR/2001/REC-SVG-20010904/DTD/svg10.dtd">
<svg version="1.0" xmlns="http://www.w3.org/2000/svg"
 width="1563.000000pt" height="313.000000pt" viewBox="0 0 1563.000000 313.000000"
 preserveAspectRatio="xMidYMid meet">

<g transform="translate(0.000000,313.000000) scale(0.100000,-0.100000)"
fill="#000000" stroke="none">
<path d="M5510 1600 l0 -720 215 0 215 0 0 318 c1 261 3 320 15 336 44 58 133
75 179 34 39 -34 46 -98 46 -409 l0 -279 210 0 210 0 0 329 c0 180 -5 353 -10
382 -32 174 -145 274 -320 286 -115 8 -205 -21 -272 -88 -27 -27 -51 -49 -53
-49 -3 0 -5 131 -5 290 l0 290 -215 0 -215 0 0 -720z"/>
<path d="M6800 1600 l0 -720 158 0 158 0 28 65 28 65 45 -41 c24 -22 74 -55
111 -72 63 -30 74 -32 177 -31 89 0 121 5 165 22 117 47 195 132 241 263 21
56 23 82 23 219 0 175 -14 237 -75 331 -120 187 -423 239 -581 99 -26 -22 -49
-40 -52 -40 -3 0 -6 126 -6 280 l0 280 -210 0 -210 0 0 -720z m631 -33 c55
-36 74 -86 74 -197 0 -110 -19 -159 -75 -197 -55 -38 -145 -29 -189 18 -19 21
-21 34 -21 179 0 149 1 157 23 178 50 47 133 56 188 19z"/>
<path d="M12440 2135 l0 -145 215 0 215 0 0 145 0 145 -215 0 -215 0 0 -145z"/>
<path d="M13230 1988 c-12 -51 -24 -101 -27 -110 -4 -16 -18 -18 -109 -18
l-104 0 0 -120 0 -120 84 0 84 0 4 -263 3 -262 33 -67 c55 -112 135 -154 312
-165 92 -5 254 8 352 29 l47 10 -4 41 c-3 23 -7 95 -11 159 l-6 116 -41 -15
c-25 -10 -77 -16 -130 -17 -129 -1 -127 -6 -127 240 l0 194 155 0 155 0 0 120
0 120 -155 0 -155 0 0 110 0 110 -169 0 -169 0 -22 -92z"/>
<path d="M910 1869 c-253 -44 -377 -175 -342 -360 27 -147 102 -196 412 -270
91 -22 175 -47 188 -55 27 -18 29 -64 3 -88 -41 -37 -179 -28 -222 15 -10 10
-19 33 -19 49 l0 30 -190 0 -190 0 0 -42 c1 -89 66 -176 167 -224 94 -44 181
-58 368 -58 147 0 181 3 248 22 143 41 219 95 257 184 19 43 22 65 18 128 -10
173 -102 238 -426 303 -185 38 -212 50 -212 98 0 50 67 76 147 59 56 -13 89
-41 98 -81 l7 -29 180 0 180 0 -4 65 c-7 116 -86 193 -240 235 -94 26 -330 36
-428 19z"/>
<path d="M3603 1862 c-68 -24 -130 -68 -162 -114 -14 -21 -31 -37 -37 -38 -6
0 -21 34 -33 75 l-22 75 -159 0 -160 0 0 -490 0 -490 215 0 215 0 0 325 c0
323 0 324 23 346 48 46 120 53 164 15 l28 -24 3 -331 3 -331 215 0 216 0 -4
357 c-4 346 -5 360 -28 423 -31 86 -101 158 -185 190 -84 32 -221 37 -292 12z"/>
<path d="M4675 1866 c-196 -38 -334 -144 -396 -304 -31 -80 -39 -264 -14 -347
51 -178 161 -280 355 -332 91 -24 349 -24 439 0 208 56 322 200 296 373 l-6
44 -210 0 -209 0 0 -36 c0 -71 -42 -113 -112 -114 -91 0 -138 77 -138 224 0
94 15 143 55 183 28 28 40 33 80 33 40 0 52 -5 81 -34 28 -28 34 -42 34 -75
l0 -41 210 0 209 0 7 36 c17 93 -24 210 -97 279 -87 81 -191 114 -384 120 -86
3 -154 0 -200 -9z"/>
<path d="M8455 1865 c-259 -49 -398 -203 -412 -457 -16 -276 110 -456 367
-525 91 -24 329 -24 419 1 181 49 300 159 346 318 28 93 26 261 -4 347 -27 78
-80 160 -130 202 -127 106 -373 154 -586 114z m246 -301 c41 -36 62 -102 63
-194 0 -104 -15 -150 -60 -190 -30 -26 -43 -30 -90 -30 -50 0 -60 4 -89 33
-44 44 -58 101 -53 212 5 103 22 145 71 176 41 26 126 22 158 -7z"/>
<path d="M11599 1870 c-76 -12 -176 -46 -221 -75 -92 -61 -128 -126 -128 -235
0 -176 89 -246 401 -318 90 -21 174 -44 186 -51 57 -30 49 -93 -14 -110 -104
-29 -213 15 -213 85 l0 24 -191 0 -192 0 6 -49 c15 -129 109 -212 292 -258
100 -24 384 -25 475 0 226 62 327 186 290 360 -29 142 -133 205 -438 263 -75
14 -149 32 -164 40 -38 20 -47 59 -19 88 29 30 68 38 133 26 59 -11 98 -45 98
-86 l0 -24 179 0 c207 0 201 -3 181 94 -21 100 -113 177 -252 212 -75 18 -329
27 -409 14z"/>
<path d="M14425 1866 c-236 -46 -367 -169 -411 -386 -30 -148 -2 -307 73 -418
58 -86 146 -143 274 -178 88 -25 363 -25 462 -1 99 25 173 64 223 120 48 54
64 96 64 175 l0 52 -194 0 -193 0 -6 -30 c-8 -39 -54 -62 -126 -63 -102 -1
-159 48 -176 151 l-7 42 350 0 350 0 7 66 c4 36 5 96 3 133 -11 157 -125 275
-314 326 -81 22 -290 28 -379 11z m262 -236 c38 -23 50 -43 55 -90 l3 -35 -90
-3 c-49 -2 -122 0 -162 3 l-71 7 9 30 c10 37 33 64 74 89 42 26 139 26 182 -1z"/>
<path d="M1752 1498 c3 -353 4 -365 27 -423 49 -126 166 -202 327 -212 131 -9
249 39 312 128 15 21 32 39 37 39 6 0 21 -34 33 -75 l22 -75 160 0 160 0 0
490 0 490 -215 0 -215 0 0 -325 c0 -314 -1 -326 -20 -345 -46 -46 -123 -53
-167 -16 l-28 24 -3 331 -3 331 -215 0 -215 0 3 -362z"/>
<path d="M9240 1839 c0 -17 134 -208 306 -434 l23 -31 -169 -227 c-94 -125
-170 -236 -170 -247 0 -19 8 -20 223 -20 l222 0 72 123 c39 67 77 134 84 150
7 15 16 27 20 27 5 0 18 -19 30 -42 12 -24 51 -91 87 -150 l65 -108 224 0
c207 0 223 1 223 18 0 10 -76 121 -170 247 -93 126 -170 232 -170 236 0 4 74
105 165 224 91 120 165 226 165 236 0 18 -11 19 -223 19 l-223 0 -71 -122
c-40 -68 -75 -131 -78 -140 -11 -29 -28 -21 -54 25 -13 23 -49 86 -80 139
l-56 98 -222 0 c-221 0 -223 0 -223 -21z"/>
<path d="M12440 1370 l0 -490 215 0 215 0 0 490 0 490 -215 0 -215 0 0 -490z"/>
<path d="M10610 1080 l0 -200 230 0 230 0 0 200 0 200 -230 0 -230 0 0 -200z"/>
</g>
</svg>
