<?xml version="1.0" standalone="no"?>
<!DOCTYPE svg PUBLIC "-//W3C//DTD SVG 20010904//EN"
 "http://www.w3.org/TR/2001/REC-SVG-20010904/DTD/svg10.dtd">
<svg version="1.0" xmlns="http://www.w3.org/2000/svg"
 width="500.000000pt" height="100.000000pt" viewBox="0 0 500.000000 100.000000"
 preserveAspectRatio="xMidYMid meet">

<g transform="translate(0.000000,100.000000) scale(0.100000,-0.100000)"
fill="#000000" stroke="none">
<path d="M4087 784 c-11 -12 -8 -69 5 -82 14 -14 67 -16 86 -3 8 5 12 23 10
47 -3 39 -3 39 -48 42 -25 2 -49 0 -53 -4z"/>
<path d="M1807 773 c-4 -3 -7 -115 -7 -249 0 -265 -3 -254 60 -254 42 0 50 24
50 147 0 121 7 139 55 149 22 4 38 0 55 -14 24 -19 25 -26 28 -144 3 -79 8
-126 15 -130 19 -12 72 -9 85 4 15 15 16 217 2 270 -6 20 -26 50 -46 67 -30
27 -42 31 -92 31 -36 0 -66 -6 -80 -16 l-22 -15 0 65 c0 89 -4 96 -54 96 -24
0 -46 -3 -49 -7z"/>
<path d="M2257 774 c-4 -4 -7 -116 -7 -250 0 -211 2 -243 16 -248 27 -10 61
-7 74 9 11 13 15 13 41 0 15 -8 47 -15 69 -15 101 0 154 65 155 190 0 131 -48
190 -155 190 -34 0 -64 -6 -77 -15 -22 -16 -22 -15 -25 62 l-3 78 -40 3 c-23
2 -44 0 -48 -4z m213 -222 c30 -25 40 -114 16 -159 -26 -52 -95 -48 -123 7
-25 50 -7 149 29 163 27 11 57 6 78 -11z"/>
<path d="M4327 774 c-4 -4 -7 -33 -7 -65 l0 -58 -32 -3 c-31 -3 -33 -5 -33
-43 0 -38 2 -40 32 -43 l31 -3 4 -110 c3 -110 3 -111 34 -139 22 -19 48 -30
82 -35 75 -10 92 -2 92 46 0 39 0 39 -39 39 -60 0 -71 17 -71 115 l0 84 48 3
47 3 0 40 0 40 -47 3 -47 3 -3 62 -3 62 -40 3 c-23 2 -44 0 -48 -4z"/>
<path d="M175 640 c-33 -13 -65 -55 -71 -92 -9 -51 31 -93 104 -114 32 -8 67
-19 80 -24 31 -13 29 -48 -5 -61 -23 -9 -35 -7 -68 10 -43 23 -109 28 -121 10
-10 -16 27 -61 67 -81 71 -37 220 -12 248 40 6 12 11 38 11 60 0 49 -35 87
-94 103 -22 6 -58 15 -78 20 -30 8 -38 15 -38 33 0 40 51 49 93 16 30 -24 95
-27 103 -5 9 22 -20 60 -59 79 -37 17 -137 21 -172 6z"/>
<path d="M497 644 c-11 -11 -8 -221 4 -269 16 -64 56 -97 123 -103 44 -3 63 0
91 16 26 16 35 18 35 8 0 -27 69 -36 89 -12 8 9 11 68 9 187 l-3 174 -50 0
-50 0 -5 -126 c-6 -144 -12 -159 -70 -159 -58 0 -64 15 -70 159 l-5 126 -45 3
c-25 2 -49 0 -53 -4z"/>
<path d="M947 643 c-4 -3 -7 -86 -7 -184 0 -193 -1 -189 59 -189 46 0 51 14
51 141 0 115 1 118 26 138 35 27 59 26 89 -4 24 -23 25 -30 25 -143 0 -130 1
-132 59 -132 45 0 51 15 51 135 0 135 -10 174 -56 214 -30 27 -42 31 -93 31
-43 0 -65 -5 -84 -20 -25 -20 -25 -20 -30 0 -4 16 -14 20 -44 20 -22 0 -43 -3
-46 -7z"/>
<path d="M1455 631 c-65 -40 -91 -100 -82 -192 6 -66 28 -112 69 -142 34 -25
130 -34 181 -18 48 16 99 75 95 109 -3 23 -8 27 -42 30 -33 3 -43 -1 -71 -32
-38 -42 -67 -45 -100 -11 -21 20 -25 34 -25 83 0 71 25 112 68 112 33 0 45 -8
61 -37 10 -19 20 -23 61 -23 44 0 50 2 50 21 0 33 -30 75 -70 98 -50 28 -152
29 -195 2z"/>
<path d="M2751 628 c-64 -44 -76 -69 -76 -168 0 -96 10 -121 69 -164 40 -30
172 -30 212 0 54 40 68 70 72 149 3 61 0 82 -17 117 -32 65 -63 82 -151 86
-65 3 -79 1 -109 -20z m153 -80 c25 -35 22 -152 -4 -178 -29 -29 -74 -26 -99
6 -30 38 -30 145 -1 174 28 28 84 27 104 -2z"/>
<path d="M3087 643 c-14 -13 -6 -31 48 -103 l55 -73 -27 -36 c-15 -20 -42 -56
-60 -80 -40 -53 -41 -69 -8 -77 43 -11 71 4 114 61 23 30 44 55 46 55 2 0 18
-20 34 -44 17 -25 38 -52 47 -60 24 -25 104 -19 104 8 0 6 -28 47 -61 90 -41
53 -59 84 -53 92 5 7 31 42 57 79 28 37 46 72 43 81 -3 9 -20 14 -46 14 -37 0
-43 -4 -82 -58 l-42 -59 -43 59 c-39 53 -46 58 -81 58 -21 0 -42 -3 -45 -7z"/>
<path d="M3764 640 c-31 -12 -74 -68 -74 -96 0 -63 41 -96 155 -126 39 -11 51
-18 53 -36 6 -40 -78 -53 -109 -16 -14 17 -95 19 -105 3 -10 -16 27 -61 67
-81 41 -22 136 -24 183 -4 109 46 98 176 -17 206 -23 6 -58 16 -78 21 -42 11
-55 32 -33 54 21 21 56 19 87 -5 27 -22 91 -27 103 -9 11 19 -19 60 -58 80
-39 20 -135 25 -174 9z"/>
<path d="M4092 638 c-8 -8 -12 -58 -12 -174 0 -179 5 -194 59 -194 49 0 52 13
49 201 l-3 174 -40 3 c-23 2 -46 -3 -53 -10z"/>
<path d="M4660 628 c-63 -44 -75 -70 -75 -168 0 -96 10 -121 68 -164 58 -43
193 -28 246 28 35 37 25 60 -28 64 -34 3 -48 -1 -63 -17 -26 -29 -82 -28 -102
1 -9 12 -16 30 -16 40 0 16 12 18 121 18 l121 0 -4 60 c-7 103 -69 160 -173
160 -48 0 -70 -5 -95 -22z m140 -68 c11 -11 20 -29 20 -40 0 -18 -7 -20 -65
-20 -58 0 -65 2 -65 20 0 28 35 60 65 60 14 0 34 -9 45 -20z"/>
<path d="M3507 383 c-4 -3 -7 -28 -7 -54 0 -50 9 -59 55 -59 48 0 55 9 55 66
l0 54 -48 0 c-27 0 -52 -3 -55 -7z"/>
</g>
</svg>
